<svg xmlns="http://www.w3.org/2000/svg" width="580" height="520" viewBox="0 0 580 520" version="1.1"><path d="M 291.250 11.739 C 294.413 11.937, 299.587 11.937, 302.750 11.739 C 305.913 11.541, 303.325 11.378, 297 11.378 C 290.675 11.378, 288.087 11.541, 291.250 11.739 M 270.750 12.723 C 272.538 12.945, 275.462 12.945, 277.250 12.723 C 279.038 12.502, 277.575 12.320, 274 12.320 C 270.425 12.320, 268.962 12.502, 270.750 12.723 M 315.750 12.723 C 317.538 12.945, 320.462 12.945, 322.250 12.723 C 324.038 12.502, 322.575 12.320, 319 12.320 C 315.425 12.320, 313.962 12.502, 315.750 12.723 M 260.762 13.707 C 262.006 13.946, 263.806 13.937, 264.762 13.687 C 265.718 13.437, 264.700 13.241, 262.500 13.252 C 260.300 13.263, 259.518 13.468, 260.762 13.707 M 329.762 13.707 C 331.006 13.946, 332.806 13.937, 333.762 13.687 C 334.718 13.437, 333.700 13.241, 331.500 13.252 C 329.300 13.263, 328.518 13.468, 329.762 13.707 M 288.750 31.744 C 293.288 31.929, 300.712 31.929, 305.250 31.744 C 309.788 31.559, 306.075 31.407, 297 31.407 C 287.925 31.407, 284.212 31.559, 288.750 31.744 M 271.264 32.718 C 272.784 32.947, 275.034 32.941, 276.264 32.704 C 277.494 32.467, 276.250 32.279, 273.500 32.286 C 270.750 32.294, 269.744 32.488, 271.264 32.718 M 317.768 32.725 C 319.565 32.947, 322.265 32.943, 323.768 32.715 C 325.271 32.486, 323.800 32.304, 320.500 32.310 C 317.200 32.315, 315.971 32.502, 317.768 32.725 M 331.762 33.707 C 333.006 33.946, 334.806 33.937, 335.762 33.687 C 336.718 33.437, 335.700 33.241, 333.500 33.252 C 331.300 33.263, 330.518 33.468, 331.762 33.707 M 413.259 35.085 C 416.041 36.705, 422 39.074, 422 38.560 C 422 38.049, 413.130 33.981, 412.123 34.030 C 411.780 34.047, 412.292 34.522, 413.259 35.085 M 361 39 C 364.419 40.095, 367.048 40.095, 364.500 39 C 363.400 38.527, 361.600 38.154, 360.500 38.170 C 358.892 38.194, 358.990 38.356, 361 39 M 428.930 42.510 C 432.466 44.415, 435.549 45.785, 435.781 45.553 C 436.240 45.093, 424.547 38.986, 423.279 39.023 C 422.850 39.035, 425.393 40.604, 428.930 42.510 M 369 41 C 372.419 42.095, 375.048 42.095, 372.500 41 C 371.400 40.527, 369.600 40.154, 368.500 40.170 C 366.892 40.194, 366.990 40.356, 369 41 M 419.250 42.288 C 418.012 42.848, 416.993 43.799, 416.985 44.403 C 416.976 45.006, 416.533 44.825, 416 44 C 415.458 43.161, 415.024 43.010, 415.015 43.656 C 415.006 44.344, 414.089 44.598, 412.750 44.281 C 410.532 43.758, 410.529 43.773, 412.500 45.325 C 414.471 46.877, 414.467 46.892, 412.250 46.334 C 411.012 46.022, 410 45.417, 410 44.990 C 410 44.563, 409.348 43.964, 408.551 43.658 C 407.640 43.308, 407.286 43.583, 407.599 44.397 C 407.935 45.274, 407.110 45.721, 405.048 45.780 C 403.372 45.827, 402 45.446, 402 44.933 C 402 44.420, 400.650 44, 399 44 C 397.350 44, 396 44.450, 396 45 C 396 45.550, 397.088 46, 398.418 46 C 401.519 46, 404.120 46.996, 403.527 47.956 C 403.273 48.367, 404.851 49.238, 407.033 49.892 C 409.215 50.545, 411 51.560, 411 52.147 C 411 52.734, 411.698 52.946, 412.552 52.618 C 413.406 52.291, 413.879 52.386, 413.605 52.830 C 413.331 53.274, 414.703 54.214, 416.655 54.920 C 419.558 55.970, 425.059 60, 423.589 60 C 423.363 60, 419.801 58.418, 415.673 56.485 C 407.404 52.613, 399.884 49.782, 399.332 50.334 C 399.137 50.530, 402.019 51.964, 405.738 53.521 C 409.457 55.078, 417.675 58.978, 424 62.187 C 430.325 65.396, 434.488 67.157, 433.250 66.100 C 430.452 63.712, 430.327 62.570, 433.021 64.011 C 434.778 64.952, 435.687 64.400, 439.972 59.797 L 444.902 54.500 441.701 51.772 C 439.940 50.271, 436.587 48.297, 434.250 47.386 C 431.913 46.474, 430 45.354, 430 44.896 C 430 44.438, 429.325 44.322, 428.500 44.638 C 427.675 44.955, 427 44.689, 427 44.048 C 427 43.407, 426.550 43.160, 426 43.500 C 425.450 43.840, 425 43.615, 425 43 C 425 42.385, 424.500 42.191, 423.888 42.569 C 423.277 42.947, 422.489 42.810, 422.138 42.264 C 421.717 41.609, 420.734 41.617, 419.250 42.288 M 381.364 44.413 C 384.544 46.175, 386.979 46.567, 385.450 45.071 C 384.928 44.560, 383.150 43.846, 381.500 43.484 L 378.500 42.826 381.364 44.413 M 391.920 48.070 C 394.901 49.128, 397.513 49.821, 397.724 49.609 C 398.191 49.143, 389.082 45.970, 387.572 46.073 C 386.982 46.113, 388.939 47.012, 391.920 48.070 M 503 46.335 C 503 46.593, 504.452 47.311, 506.227 47.929 C 508.002 48.548, 509.015 48.643, 508.477 48.140 C 507.338 47.074, 503 45.644, 503 46.335 M 510.741 50.178 C 511.424 51.006, 511.735 51.931, 511.433 52.233 C 510.560 53.107, 506.964 51.867, 507.563 50.898 C 507.861 50.417, 507.380 50.301, 506.494 50.640 C 505.609 50.980, 505.122 51.875, 505.411 52.629 C 505.700 53.383, 505.573 54, 505.128 54 C 504.683 54, 504.371 55.800, 504.435 58 C 504.498 60.200, 504.277 62, 503.942 62 C 503.607 62, 503.297 62.563, 503.254 63.250 C 502.973 67.646, 501.631 73.554, 500.846 73.847 C 500.327 74.041, 500.430 74.814, 501.081 75.597 C 501.847 76.520, 501.882 77, 501.185 77 C 500.601 77, 500.104 78.013, 500.079 79.250 C 500.055 80.487, 500.020 82.490, 500.002 83.700 C 499.984 84.911, 499.546 86.163, 499.028 86.482 C 498.511 86.802, 498.343 87.730, 498.656 88.545 C 498.968 89.359, 498.668 90.695, 497.989 91.513 C 497.311 92.331, 497.148 93.002, 497.628 93.004 C 498.107 93.006, 498.489 97.169, 498.475 102.254 C 498.460 107.339, 498.803 112.267, 499.236 113.205 C 499.669 114.143, 500.218 117.517, 500.457 120.702 C 500.789 125.127, 501.410 126.913, 503.087 128.272 C 505.715 130.400, 505.779 130.318, 499.497 132.865 C 493.174 135.428, 495.283 135.644, 501.939 133.115 L 506.899 131.230 514.030 141.865 C 521.689 153.287, 534.472 178.400, 538.023 189 C 547.213 216.438, 550.502 237.846, 549.698 265 C 548.828 294.369, 542.073 322.362, 529.672 347.987 C 526.965 353.580, 517.767 370.325, 517.031 371 C 516.731 371.275, 514.571 374.425, 512.232 378 C 504.044 390.513, 490.366 405.930, 473.609 421.532 C 472.999 422.100, 468.450 425.667, 463.500 429.459 C 454.169 436.606, 451.414 438.913, 453.905 437.492 C 454.853 436.951, 455.074 437.071, 454.585 437.862 C 454.187 438.506, 453.461 438.785, 452.971 438.482 C 452.251 438.037, 447.969 440.523, 437.107 447.693 C 436.892 447.835, 437.284 448.638, 437.980 449.476 C 438.769 450.426, 438.845 451, 438.181 451 C 437.597 451, 436.840 450.550, 436.500 450 C 435.652 448.627, 434.714 448.743, 432.441 450.502 C 430.559 451.959, 430.558 451.984, 432.414 451.333 C 433.843 450.831, 434.120 450.996, 433.510 451.985 C 432.961 452.872, 433.077 453.070, 433.862 452.585 C 434.506 452.187, 434.738 451.385, 434.377 450.801 C 434.008 450.203, 434.300 449.933, 435.048 450.183 C 437.631 451.044, 437.034 452.756, 433.582 454.394 C 431.658 455.307, 429.797 456.519, 429.445 457.088 C 428.746 458.220, 423.952 460.420, 422.750 460.161 C 422.041 460.009, 421.610 461.570, 421.891 463.278 C 421.961 463.706, 421.339 464.268, 420.509 464.528 C 415.168 466.199, 415.355 466.053, 417.208 467.094 C 418.155 467.625, 418.665 468.710, 418.351 469.526 C 418.040 470.337, 418.284 471, 418.893 471 C 419.502 471, 420 470.550, 420 470 C 420 469.450, 420.436 469, 420.969 469 C 421.501 469, 421.722 469.563, 421.459 470.250 C 421.137 471.091, 422.128 471.539, 424.491 471.619 C 426.421 471.685, 428 471.321, 428 470.810 C 428 470.300, 428.391 470.124, 428.869 470.419 C 429.830 471.013, 447.396 463.069, 451 460.411 C 451.825 459.802, 453.351 459, 454.391 458.629 C 460.609 456.411, 445.706 466.116, 433.157 472.458 C 431.318 473.387, 430.014 474.348, 430.259 474.592 C 430.998 475.331, 453.846 462.186, 464 455.180 C 469.225 451.575, 477.100 445.699, 481.500 442.121 C 492.754 432.971, 500.108 425.926, 514.399 410.607 C 517.909 406.845, 531.161 389.228, 533.646 385.022 C 534.628 383.360, 535.784 382, 536.216 382 C 536.647 382, 537 381.605, 537 381.121 C 537 380.638, 538.593 377.600, 540.540 374.371 C 546.919 363.790, 555.658 344.735, 559.971 332 C 562.299 325.125, 564.576 318.600, 565.031 317.500 C 566.032 315.077, 568.448 302.082, 570.421 288.500 C 573.669 266.148, 573.222 244.748, 568.990 220 C 567.814 213.125, 566.630 206.150, 566.358 204.500 C 566.086 202.850, 565.471 200.600, 564.991 199.500 C 564.511 198.400, 562.950 193.900, 561.521 189.500 C 557.577 177.356, 554.379 169.628, 548.043 156.928 C 543.084 146.989, 530.085 125.521, 528.105 124 C 527.747 123.725, 526.657 122.248, 525.682 120.717 C 523.977 118.039, 523.983 117.832, 525.827 115.217 C 526.881 113.723, 529.039 110.025, 530.622 107 C 533.350 101.787, 533.499 100.847, 533.483 89 C 533.467 76.890, 533.367 76.308, 530.260 70.360 C 528.496 66.983, 524.746 61.694, 521.925 58.609 C 517.856 54.156, 516.302 53.087, 514.399 53.433 C 513.079 53.672, 512 53.399, 512 52.827 C 512 52.254, 512.698 52.054, 513.552 52.382 C 515.781 53.237, 514.322 51.241, 511.694 49.842 C 509.787 48.825, 509.662 48.869, 510.741 50.178 M 428.232 89 C 428.232 90.925, 428.438 91.713, 428.689 90.750 C 428.941 89.787, 428.941 88.213, 428.689 87.250 C 428.438 86.287, 428.232 87.075, 428.232 89 M 91.437 93.250 L 88.500 96.500 91.750 93.563 C 93.537 91.948, 95 90.485, 95 90.313 C 95 89.540, 94.175 90.221, 91.437 93.250 M 287.199 133.744 C 291.984 133.927, 300.084 133.928, 305.199 133.746 C 310.315 133.564, 306.400 133.414, 296.500 133.413 C 286.600 133.412, 282.415 133.561, 287.199 133.744 M 471 136 C 472.970 137.273, 475.287 137.273, 474.500 136 C 474.160 135.450, 472.896 135.007, 471.691 135.015 C 469.910 135.028, 469.781 135.212, 471 136 M 488.500 136 C 487.713 137.273, 490.030 137.273, 492 136 C 493.219 135.212, 493.090 135.028, 491.309 135.015 C 490.104 135.007, 488.840 135.450, 488.500 136 M 361.483 151.389 C 360.438 152.153, 358.936 152.529, 358.144 152.225 C 357.039 151.801, 356.826 152.310, 357.228 154.413 C 357.602 156.371, 357.145 157.744, 355.626 159.224 C 353.721 161.079, 353.697 161.225, 355.391 160.625 C 356.908 160.087, 357.058 160.225, 356.150 161.319 C 355.527 162.070, 355.238 162.980, 355.509 163.342 C 355.779 163.704, 355.703 163.778, 355.340 163.506 C 354.072 162.559, 352.086 166.742, 352.560 169.361 C 352.824 170.812, 352.580 172, 352.020 172 C 351.459 172, 351 171.463, 351 170.806 C 351 170.149, 349.944 171.043, 348.653 172.792 C 347.363 174.542, 346.013 175.679, 345.653 175.320 C 344.962 174.629, 344.653 176.345, 344.946 179.242 C 345.063 180.394, 344.628 180.795, 343.663 180.424 C 342.859 180.116, 341.908 180.339, 341.549 180.920 C 341.164 181.543, 341.481 181.753, 342.319 181.431 C 343.107 181.129, 344.028 181.630, 344.382 182.554 C 344.849 183.770, 344.609 184.064, 343.496 183.637 C 342.311 183.182, 342.074 183.624, 342.435 185.612 C 342.690 187.021, 343.484 188.896, 344.199 189.779 C 344.915 190.662, 345.003 191.086, 344.394 190.722 C 343.013 189.895, 343.783 194.889, 345.340 196.851 C 346.667 198.523, 347.133 201.200, 345.973 200.483 C 345.504 200.194, 345.190 200.866, 345.273 201.978 C 345.357 203.090, 345.806 204, 346.272 204 C 346.737 204, 346.840 204.450, 346.500 205 C 346.160 205.550, 346.471 206.007, 347.191 206.015 C 348.218 206.027, 348.204 206.218, 347.122 206.904 C 346.319 207.412, 346.070 208.305, 346.526 209.043 C 347.036 209.867, 346.906 210.060, 346.155 209.595 C 345.478 209.177, 345 209.503, 345 210.382 C 345 211.207, 345.396 212.127, 345.879 212.425 C 347.403 213.367, 347.845 216.883, 346.574 217.939 C 345.649 218.707, 345.426 218.171, 345.652 215.726 C 345.926 212.773, 345.877 212.711, 345.075 215 C 344.594 216.375, 344.199 219.075, 344.199 221 C 344.199 224.167, 344.275 224.262, 345 222 C 345.545 220.300, 345.782 221.899, 345.743 227 C 345.690 234.014, 345.641 234.176, 345 229.500 C 344.623 226.750, 344.275 236.200, 344.227 250.500 C 344.176 265.800, 344.494 275.677, 345 274.500 C 345.595 273.116, 345.912 274.811, 346.029 280 C 346.151 285.357, 346.428 286.786, 347 285 L 347.801 282.500 347.900 285.250 C 347.955 286.762, 347.543 288, 346.984 288 C 346.425 288, 346.071 289.350, 346.197 291 C 346.323 292.661, 347 294, 347.713 294 C 348.475 294, 348.959 295.123, 348.900 296.750 L 348.801 299.500 348 297 L 347.199 294.500 346.972 297 C 346.847 298.375, 346.795 301.008, 346.856 302.851 C 346.947 305.558, 346.656 306.082, 345.343 305.578 C 343.942 305.040, 343.904 305.180, 345.072 306.587 C 345.922 307.611, 346.565 307.804, 346.799 307.103 C 347.303 305.590, 349.010 306.746, 348.540 308.282 C 347.106 312.968, 346.990 315.128, 348.210 314.437 C 349.207 313.873, 349.234 313.995, 348.328 314.975 C 347.684 315.673, 347.389 316.976, 347.672 317.872 C 348.077 319.147, 347.978 319.206, 347.219 318.143 C 346.592 317.265, 346.024 317.152, 345.609 317.824 C 345.256 318.395, 345.382 319.118, 345.890 319.432 C 347.232 320.261, 344.950 327.077, 343.594 326.291 C 342.992 325.942, 343.357 326.634, 344.405 327.828 C 345.453 329.023, 345.826 330, 345.234 330 C 343.414 330, 341.704 339.310, 343.122 341.500 C 343.478 342.050, 343.324 343.625, 342.780 345 C 341.834 347.389, 341.751 347.412, 340.903 345.500 L 340.017 343.500 340.272 345.500 C 340.413 346.600, 341.084 347.556, 341.764 347.625 C 344.136 347.865, 344.237 348.010, 343.036 349.456 C 341.680 351.091, 342.570 353.384, 344.176 352.391 C 344.833 351.985, 344.976 352.499, 344.566 353.791 C 344.210 354.913, 344.409 356.135, 345.008 356.505 C 345.784 356.984, 345.760 357.584, 344.926 358.589 C 344.282 359.365, 344.098 360, 344.517 360 C 344.937 360, 345.855 359.214, 346.557 358.253 C 347.685 356.710, 347.809 356.874, 347.617 359.657 C 347.448 362.100, 347.766 362.738, 349.033 362.494 C 349.931 362.321, 350.667 362.794, 350.667 363.546 C 350.667 364.297, 350.179 364.673, 349.583 364.382 C 348.988 364.090, 349.373 364.560, 350.441 365.426 C 351.952 366.651, 352.558 366.723, 353.176 365.750 C 353.808 364.754, 353.972 364.756, 353.985 365.762 C 353.995 366.641, 355.287 366.901, 358.250 366.619 C 363.705 366.100, 367 365.029, 367 363.776 C 367 363.232, 367.619 363.024, 368.376 363.314 C 369.132 363.604, 370.947 363.221, 372.408 362.463 C 377.854 359.638, 373.737 362.975, 367.416 366.510 C 363.804 368.530, 361.044 370.378, 361.283 370.617 C 361.850 371.183, 383.328 358.895, 385 357.048 C 385.275 356.744, 388.810 353.819, 392.855 350.549 C 400.582 344.300, 410.486 333.550, 416.061 325.360 C 417.880 322.687, 419.623 320.275, 419.934 320 C 420.904 319.143, 427.859 304.761, 429.946 299.298 C 435.417 284.975, 436.450 278.499, 436.458 258.500 C 436.465 240.619, 436.298 238.911, 433.622 229.500 C 426.012 202.744, 409.484 178.837, 387.172 162.313 C 382.952 159.188, 378.927 156.200, 378.227 155.674 C 377.286 154.967, 377.120 155.148, 377.588 156.370 C 378.066 157.615, 377.811 157.865, 376.554 157.382 C 375.574 157.006, 375.125 156.117, 375.465 155.230 C 375.924 154.035, 375.753 153.960, 374.656 154.871 C 373.579 155.764, 372.953 155.641, 371.883 154.325 C 370.668 152.832, 370.713 152.705, 372.250 153.281 C 375.050 154.331, 374.271 153.191, 371.050 151.526 C 367.447 149.662, 365.554 149.546, 368.885 151.393 C 370.592 152.339, 370.916 152.934, 370.023 153.486 C 369.331 153.914, 368.443 153.717, 368.026 153.043 C 367.614 152.375, 366.989 151.868, 366.638 151.915 C 364.266 152.232, 362.972 151.855, 363.500 151 C 364.348 149.627, 363.729 149.747, 361.483 151.389 M 156.385 259 C 156.385 265.875, 156.545 268.688, 156.740 265.250 C 156.936 261.813, 156.936 256.188, 156.740 252.750 C 156.545 249.313, 156.385 252.125, 156.385 259 M 43.374 260.500 C 43.376 266.550, 43.541 268.896, 43.740 265.713 C 43.939 262.531, 43.937 257.581, 43.736 254.713 C 43.535 251.846, 43.372 254.450, 43.374 260.500 M 345.252 261.500 C 345.263 263.700, 345.468 264.482, 345.707 263.238 C 345.946 261.994, 345.937 260.194, 345.687 259.238 C 345.437 258.282, 345.241 259.300, 345.252 261.500 M 347.252 261.500 C 347.263 263.700, 347.468 264.482, 347.707 263.238 C 347.946 261.994, 347.937 260.194, 347.687 259.238 C 347.437 258.282, 347.241 259.300, 347.252 261.500 M 344.310 282.500 C 344.315 285.800, 344.502 287.029, 344.725 285.232 C 344.947 283.435, 344.943 280.735, 344.715 279.232 C 344.486 277.729, 344.304 279.200, 344.310 282.500 M 55.460 281.347 C 56.737 282.281, 56.949 282.913, 56.151 283.406 C 55.518 283.798, 55 283.626, 55 283.024 C 55 282.244, 54.390 282.256, 52.879 283.065 C 51.389 283.862, 50.961 283.873, 51.438 283.100 C 51.812 282.495, 51.690 282, 51.166 282 C 50.642 282, 49.955 282.675, 49.638 283.500 C 49.322 284.325, 49.529 285, 50.099 285 C 50.669 285, 50.897 285.788, 50.607 286.750 C 49.423 290.672, 48.875 294.856, 48.673 301.500 C 48.557 305.350, 48.104 309.066, 47.667 309.757 C 47.194 310.506, 47.417 311.223, 48.217 311.530 C 49.125 311.878, 49.477 313.500, 49.300 316.523 C 49.155 318.985, 49.407 321, 49.858 321 C 50.310 321, 51.192 322.125, 51.818 323.500 C 52.445 324.875, 53.672 326, 54.546 326 C 55.697 326, 55.954 326.570, 55.478 328.069 C 55.077 329.332, 56.966 327.959, 60.324 324.547 C 69.687 315.034, 71.663 303.649, 65.940 292.196 C 63.242 286.797, 56.819 280, 54.415 280 C 53.976 280, 54.447 280.606, 55.460 281.347 M 355 372.500 C 351.734 374.367, 352.877 374.388, 357.135 372.539 C 358.986 371.736, 359.825 371.077, 359 371.075 C 358.175 371.073, 356.375 371.714, 355 372.500 M 337 378.531 C 332.875 379.807, 330.126 380.885, 330.892 380.926 C 332.654 381.020, 346 377.072, 346 376.458 C 346 375.799, 345.324 375.955, 337 378.531 M 272 382.954 C 272.825 383.513, 274.363 383.976, 275.417 383.985 C 277.975 384.005, 277.177 383.433, 273.500 382.610 C 271.309 382.120, 270.905 382.213, 272 382.954 M 316.500 383 C 315.708 384.282, 320.017 384.282, 322 383 C 323.141 382.262, 322.737 382.027, 320.309 382.015 C 318.554 382.007, 316.840 382.450, 316.500 383 M 292.280 384.736 C 294.909 384.943, 298.959 384.940, 301.280 384.731 C 303.601 384.521, 301.450 384.352, 296.500 384.355 C 291.550 384.358, 289.651 384.530, 292.280 384.736 M 442.693 445.167 C 439.256 447.415, 438.258 448.545, 439.193 449.129 C 440.036 449.657, 441.071 449.197, 442.110 447.834 C 442.995 446.671, 444.795 444.893, 446.110 443.882 C 449.854 441.004, 447.985 441.706, 442.693 445.167 M 419.647 457.114 C 415.328 459.321, 411.997 461.331, 412.245 461.578 C 412.493 461.826, 414.779 460.865, 417.325 459.442 C 419.872 458.019, 422.485 457.182, 423.132 457.582 C 423.869 458.037, 424.042 457.878, 423.595 457.155 C 423.203 456.520, 423.273 456, 423.750 456 C 424.227 456, 425.491 455.339, 426.559 454.532 C 429.599 452.232, 428.107 452.790, 419.647 457.114 M 405 464 C 400.412 466.512, 401.626 466.524, 407.141 464.022 C 409.538 462.934, 410.825 462.053, 410 462.064 C 409.175 462.075, 406.925 462.946, 405 464 M 393.500 468.535 C 390.999 469.740, 390.916 469.878, 393 469.369 C 395.834 468.677, 399.018 467.053, 397.500 467.076 C 396.950 467.084, 395.150 467.740, 393.500 468.535 M 379.500 473.464 C 377.850 474.219, 377.175 474.858, 378 474.883 C 378.825 474.909, 380.625 474.286, 382 473.500 C 385.183 471.680, 383.450 471.655, 379.500 473.464 M 366.703 476.719 C 363.514 477.555, 361.102 478.435, 361.342 478.675 C 361.791 479.124, 374.170 476.148, 374.917 475.411 C 375.656 474.682, 372.639 475.162, 366.703 476.719 M 419.500 479 C 415.100 481.114, 411.950 482.866, 412.500 482.892 C 413.050 482.918, 417.100 481.192, 421.500 479.055 C 425.900 476.918, 429.050 475.167, 428.500 475.163 C 427.950 475.159, 423.900 476.886, 419.500 479 M 332.250 483.689 C 333.212 483.941, 334.788 483.941, 335.750 483.689 C 336.712 483.438, 335.925 483.232, 334 483.232 C 332.075 483.232, 331.288 483.438, 332.250 483.689 M 402.105 486.085 C 400.787 486.612, 399.960 487.294, 400.266 487.600 C 400.573 487.906, 402.100 487.464, 403.662 486.618 C 406.803 484.916, 405.846 484.588, 402.105 486.085 M 380.500 493.504 L 377.500 494.918 380.500 494.324 C 382.150 493.997, 384.175 493.355, 385 492.895 C 387.693 491.397, 383.875 491.913, 380.500 493.504 M 353 500 C 351.813 500.767, 352.021 500.969, 354 500.969 C 355.375 500.969, 357.175 500.533, 358 500 C 359.187 499.233, 358.979 499.031, 357 499.031 C 355.625 499.031, 353.825 499.467, 353 500 M 259.762 503.707 C 261.006 503.946, 262.806 503.937, 263.762 503.687 C 264.718 503.437, 263.700 503.241, 261.500 503.252 C 259.300 503.263, 258.518 503.468, 259.762 503.707 M 329.750 503.706 C 330.988 503.944, 333.012 503.944, 334.250 503.706 C 335.488 503.467, 334.475 503.272, 332 503.272 C 329.525 503.272, 328.512 503.467, 329.750 503.706 M 269.250 504.716 C 270.762 504.945, 273.238 504.945, 274.750 504.716 C 276.262 504.487, 275.025 504.300, 272 504.300 C 268.975 504.300, 267.738 504.487, 269.250 504.716 M 315.728 504.722 C 317.503 504.943, 320.653 504.946, 322.728 504.730 C 324.802 504.513, 323.350 504.333, 319.500 504.328 C 315.650 504.324, 313.952 504.501, 315.728 504.722 M 289.750 505.743 C 293.738 505.932, 300.262 505.932, 304.250 505.743 C 308.238 505.553, 304.975 505.397, 297 505.397 C 289.025 505.397, 285.762 505.553, 289.750 505.743" stroke="none" fill="#5eaafb" fill-rule="evenodd"/><path d="M 269.500 13.119 C 257.689 14.021, 243.879 16.082, 232.546 18.634 C 220.542 21.337, 199.746 27.109, 194.500 29.193 C 191.750 30.286, 186.634 32.260, 183.132 33.580 C 163.042 41.150, 131.354 59.710, 112.369 75.025 C 94.934 89.090, 76.238 109.024, 62.787 127.890 C 60.195 131.525, 58.057 135.025, 58.037 135.667 C 58.017 136.308, 57.598 136.983, 57.107 137.167 C 55.785 137.660, 44.015 159.224, 44.007 161.167 C 44.003 162.083, 43.609 162.983, 43.130 163.167 C 41.779 163.684, 36.424 176.564, 32.556 188.600 C 24.578 213.422, 21.763 231.186, 21.483 258.480 L 21.279 278.460 18.777 279.980 C 10.303 285.129, 6.197 290.545, 4.079 299.373 C 0.672 313.567, 11.989 329.264, 28.405 333.115 L 34.310 334.500 38.145 343.940 C 40.254 349.132, 42.434 353.834, 42.990 354.390 C 43.545 354.945, 44 355.993, 44 356.717 C 44 358.345, 52.598 373.754, 59.502 384.500 C 70.645 401.844, 95.369 429.369, 109.015 439.621 C 112.032 441.888, 115.761 444.925, 117.302 446.371 C 118.842 447.817, 120.292 449, 120.522 449 C 121.018 449, 130.274 455.244, 131 456.068 C 131.275 456.380, 135.627 459.174, 140.671 462.276 C 174.235 482.916, 217.095 497.970, 255.095 502.463 C 286.758 506.208, 334.441 505.013, 353 500.011 C 354.925 499.492, 361 498.117, 366.500 496.955 C 372 495.793, 378.300 494.233, 380.500 493.487 C 382.700 492.741, 387.650 491.186, 391.500 490.031 C 395.350 488.876, 399.400 487.527, 400.500 487.033 C 401.600 486.539, 407 484.260, 412.500 481.969 C 424.659 476.904, 433.707 472.435, 445.213 465.811 C 453.753 460.894, 458.538 457.149, 454.391 458.629 C 453.351 459, 451.825 459.802, 451 460.411 C 447.396 463.069, 429.830 471.013, 428.869 470.419 C 428.391 470.124, 428 470.300, 428 470.810 C 428 471.321, 426.421 471.685, 424.491 471.619 C 422.128 471.539, 421.137 471.091, 421.459 470.250 C 421.722 469.563, 421.501 469, 420.969 469 C 420.436 469, 420 469.450, 420 470 C 420 470.550, 419.502 471, 418.893 471 C 418.284 471, 418.040 470.337, 418.351 469.526 C 418.665 468.710, 418.155 467.625, 417.208 467.094 C 415.411 466.085, 415.533 465.993, 420.759 464.432 C 421.452 464.225, 421.961 463.706, 421.891 463.278 C 421.610 461.570, 422.041 460.009, 422.750 460.161 C 423.952 460.420, 428.746 458.220, 429.445 457.088 C 429.797 456.519, 431.665 455.304, 433.596 454.387 C 435.701 453.389, 436.906 452.197, 436.604 451.412 C 436.269 450.538, 436.639 450.308, 437.715 450.721 C 438.830 451.149, 439.092 450.958, 438.564 450.103 C 438.086 449.330, 438.305 448.964, 439.150 449.126 C 439.892 449.270, 442.300 447.637, 444.500 445.499 C 448.656 441.459, 448.216 441.533, 441.500 446.003 C 439.300 447.467, 434.261 450.397, 430.303 452.514 C 426.345 454.631, 423.377 456.801, 423.708 457.336 C 424.041 457.875, 423.793 457.990, 423.152 457.594 C 422.515 457.200, 419.858 458.004, 417.247 459.379 C 412.333 461.968, 407.473 463.995, 395.500 468.449 C 391.650 469.881, 386.250 471.916, 383.500 472.970 C 369.820 478.218, 343.049 483.247, 319 485.087 C 278.979 488.148, 237.097 482.536, 201.553 469.349 C 187.180 464.016, 167.505 454.861, 161.846 450.871 C 160.386 449.842, 158.511 449, 157.679 449 C 156.847 449, 156.017 448.662, 155.833 448.250 C 155.650 447.837, 152.125 445.306, 148 442.625 C 143.875 439.943, 138.025 435.905, 135 433.652 C 128.294 428.656, 106.989 410.155, 105.223 407.793 C 104.521 406.854, 102.324 404.379, 100.341 402.293 C 98.358 400.207, 94.232 395.350, 91.171 391.500 C 88.111 387.650, 85.334 384.275, 85 384 C 84.399 383.506, 76.611 371.435, 72.242 364.226 C 65.281 352.740, 54.834 329.596, 55.650 327.469 C 56.004 326.548, 55.607 326, 54.586 326 C 53.690 326, 52.445 324.875, 51.818 323.500 C 51.192 322.125, 50.310 321, 49.858 321 C 49.407 321, 49.155 318.985, 49.300 316.523 C 49.477 313.500, 49.125 311.878, 48.217 311.530 C 47.417 311.223, 47.194 310.506, 47.667 309.757 C 48.104 309.066, 48.557 305.350, 48.673 301.500 C 48.875 294.856, 49.423 290.672, 50.607 286.750 C 50.897 285.787, 50.669 285, 50.099 285 C 49.529 285, 49.322 284.325, 49.638 283.500 C 49.955 282.675, 50.642 282, 51.166 282 C 51.690 282, 51.812 282.495, 51.438 283.100 C 50.961 283.873, 51.389 283.862, 52.879 283.065 C 54.390 282.256, 55 282.244, 55 283.024 C 55 283.626, 55.457 283.835, 56.016 283.490 C 57.640 282.487, 56.459 281.486, 50.081 278.457 L 44.096 275.614 43.423 270.234 C 41.877 257.860, 44.602 228.566, 49.026 210 C 53.235 192.335, 62.838 167.955, 70.091 156.517 C 71.691 153.995, 73 151.685, 73 151.385 C 73 150.340, 85.520 132.450, 91.116 125.500 C 100.558 113.772, 122.074 92.792, 132.075 85.560 C 169.572 58.447, 201.631 44.458, 246.923 35.445 C 257.980 33.244, 283.688 30.996, 297.411 31.029 C 313.481 31.068, 338.038 33.339, 350.944 35.980 C 362.950 38.437, 383.466 43.727, 385.869 44.987 C 386.766 45.457, 391.775 47.299, 397 49.082 C 402.225 50.865, 410.257 54.050, 414.849 56.162 C 419.441 58.273, 423.379 60, 423.599 60 C 425.062 60, 419.547 55.966, 416.655 54.920 C 414.703 54.214, 413.331 53.274, 413.605 52.830 C 413.879 52.386, 413.406 52.291, 412.552 52.618 C 411.698 52.946, 411 52.734, 411 52.147 C 411 51.560, 409.215 50.545, 407.033 49.892 C 404.851 49.238, 403.273 48.367, 403.527 47.956 C 404.120 46.996, 401.519 46, 398.418 46 C 397.088 46, 396 45.550, 396 45 C 396 44.450, 397.350 44, 399 44 C 400.650 44, 402 44.420, 402 44.933 C 402 45.446, 403.372 45.827, 405.048 45.780 C 407.110 45.721, 407.935 45.274, 407.599 44.397 C 407.286 43.583, 407.640 43.308, 408.551 43.658 C 409.348 43.964, 410 44.563, 410 44.990 C 410 45.417, 411.012 46.022, 412.250 46.334 C 414.467 46.892, 414.471 46.877, 412.500 45.325 C 410.529 43.773, 410.532 43.758, 412.750 44.281 C 414.089 44.598, 415.006 44.344, 415.015 43.656 C 415.024 43.010, 415.458 43.161, 416 44 C 416.533 44.825, 416.976 45.010, 416.985 44.411 C 416.993 43.811, 418.125 42.808, 419.500 42.182 C 421.265 41.378, 422 41.362, 422 42.128 C 422 42.725, 422.675 42.955, 423.500 42.638 C 424.325 42.322, 425 42.525, 425 43.090 C 425 43.656, 425.450 43.840, 426 43.500 C 426.550 43.160, 427 43.407, 427 44.048 C 427 44.689, 427.675 44.955, 428.500 44.638 C 429.325 44.322, 430 44.438, 430 44.896 C 430 45.354, 431.913 46.474, 434.250 47.386 C 436.587 48.297, 439.940 50.271, 441.701 51.772 L 444.902 54.500 439.972 59.797 C 435.687 64.400, 434.778 64.952, 433.021 64.011 C 430.357 62.585, 430.404 64.147, 433.076 65.815 C 434.513 66.713, 434.853 67.479, 434.181 68.306 C 432.082 70.886, 429 83.493, 429 89.500 C 429 92.959, 429.889 98.668, 430.976 102.187 C 433.999 111.975, 438.223 117.642, 449.004 126.378 C 453.061 129.665, 463.553 134.041, 468.894 134.674 C 471.735 135.010, 474.297 135.671, 474.588 136.143 C 475.331 137.345, 487.747 137.218, 488.500 136 C 488.840 135.450, 490.200 135, 491.522 135 C 493.614 135, 503.807 131.524, 504.892 130.441 C 505.107 130.226, 504.295 129.250, 503.087 128.272 C 501.410 126.913, 500.789 125.127, 500.457 120.702 C 500.218 117.517, 499.669 114.143, 499.236 113.205 C 498.803 112.267, 498.460 107.339, 498.475 102.254 C 498.489 97.169, 498.107 93.006, 497.628 93.004 C 497.148 93.002, 497.311 92.331, 497.989 91.513 C 498.668 90.695, 498.968 89.359, 498.656 88.545 C 498.343 87.730, 498.511 86.802, 499.028 86.482 C 499.546 86.163, 499.984 84.911, 500.002 83.700 C 500.020 82.490, 500.055 80.487, 500.079 79.250 C 500.104 78.013, 500.601 77, 501.185 77 C 501.882 77, 501.847 76.520, 501.081 75.597 C 500.430 74.814, 500.327 74.041, 500.846 73.847 C 501.631 73.554, 502.973 67.646, 503.254 63.250 C 503.297 62.563, 503.607 62, 503.942 62 C 504.277 62, 504.498 60.200, 504.435 58 C 504.371 55.800, 504.683 54, 505.128 54 C 505.573 54, 505.700 53.383, 505.411 52.629 C 505.122 51.875, 505.609 50.980, 506.494 50.640 C 507.430 50.282, 507.848 50.437, 507.493 51.011 C 506.961 51.872, 509.001 52.474, 511.250 52.118 C 511.662 52.053, 512 52.375, 512 52.833 C 512 53.292, 512.701 53.667, 513.557 53.667 C 516.415 53.667, 509.767 49.254, 502.726 46.476 C 492.713 42.527, 483.752 41.401, 473.373 42.790 C 468.645 43.423, 464.264 44.310, 463.638 44.762 C 463.012 45.213, 460.700 46.192, 458.500 46.937 C 456.300 47.682, 452.949 49.340, 451.053 50.622 C 448.099 52.619, 447.383 52.757, 446.053 51.584 C 444.271 50.013, 409.689 33, 408.278 33 C 407.765 33, 404.455 31.825, 400.922 30.389 C 387.843 25.070, 364.316 18.919, 344 15.505 C 324.786 12.277, 293.614 11.279, 269.500 13.119 M 274.500 134.601 C 273.400 134.856, 268.675 135.778, 264 136.652 C 237.344 141.633, 211.924 155.110, 192.580 174.516 C 174.313 192.843, 163.971 211.842, 158.466 237.187 C 155.904 248.980, 156.849 275.103, 160.313 288.260 C 166.450 311.572, 181.550 334.798, 201 350.840 C 210.872 358.983, 225.703 368.196, 234.500 371.652 C 245.483 375.965, 256.201 379.186, 267.012 381.422 C 277.681 383.628, 282.039 384, 297.252 384 C 307.028 384, 315.809 383.598, 316.764 383.106 C 317.719 382.614, 321.650 381.731, 325.500 381.144 C 331.710 380.197, 347.151 375.623, 357 371.813 C 361.379 370.120, 373.796 363.139, 374.524 361.961 C 374.822 361.479, 373.870 361.705, 372.408 362.463 C 370.947 363.221, 369.132 363.604, 368.376 363.314 C 367.619 363.024, 367 363.232, 367 363.776 C 367 365.029, 363.705 366.100, 358.250 366.619 C 355.287 366.901, 353.995 366.641, 353.985 365.762 C 353.972 364.756, 353.808 364.754, 353.176 365.750 C 352.558 366.723, 351.952 366.651, 350.441 365.426 C 349.373 364.560, 348.988 364.090, 349.583 364.382 C 350.179 364.673, 350.667 364.297, 350.667 363.546 C 350.667 362.794, 349.931 362.321, 349.033 362.494 C 347.766 362.738, 347.448 362.100, 347.617 359.657 C 347.809 356.874, 347.685 356.710, 346.557 358.253 C 345.855 359.214, 344.937 360, 344.517 360 C 344.098 360, 344.282 359.365, 344.926 358.589 C 345.760 357.584, 345.784 356.984, 345.008 356.505 C 344.409 356.135, 344.210 354.913, 344.566 353.791 C 344.976 352.499, 344.833 351.985, 344.176 352.391 C 342.570 353.384, 341.680 351.091, 343.036 349.456 C 344.237 348.010, 344.136 347.865, 341.764 347.625 C 341.084 347.556, 340.413 346.600, 340.272 345.500 L 340.017 343.500 340.903 345.500 C 341.751 347.412, 341.834 347.389, 342.780 345 C 343.324 343.625, 343.478 342.050, 343.122 341.500 C 341.704 339.310, 343.414 330, 345.234 330 C 345.826 330, 345.453 329.023, 344.405 327.828 C 343.357 326.634, 342.992 325.942, 343.594 326.291 C 344.950 327.077, 347.232 320.261, 345.890 319.432 C 345.382 319.118, 345.256 318.395, 345.609 317.824 C 346.024 317.152, 346.592 317.265, 347.219 318.143 C 347.978 319.206, 348.077 319.147, 347.672 317.872 C 347.389 316.976, 347.684 315.673, 348.328 314.975 C 349.234 313.995, 349.207 313.873, 348.210 314.437 C 346.990 315.128, 347.106 312.968, 348.540 308.282 C 349.010 306.746, 347.303 305.590, 346.799 307.103 C 346.565 307.804, 345.922 307.611, 345.072 306.587 C 343.904 305.180, 343.942 305.040, 345.343 305.578 C 346.656 306.082, 346.947 305.558, 346.856 302.851 C 346.795 301.008, 346.847 298.375, 346.972 297 L 347.199 294.500 348 297 L 348.801 299.500 348.900 296.750 C 348.968 294.883, 348.499 294, 347.441 294 C 346.584 294, 346.165 293.543, 346.510 292.984 C 346.856 292.425, 347.515 292.200, 347.976 292.485 C 348.437 292.770, 348.555 292.014, 348.239 290.805 C 347.690 288.708, 347.629 288.696, 346.902 290.554 C 346.198 292.353, 346.135 292.330, 346.070 290.250 C 346.032 289.012, 346.450 288, 347 288 C 347.550 288, 347.955 286.762, 347.900 285.250 L 347.801 282.500 347 285 C 346.428 286.786, 346.151 285.357, 346.029 280 C 345.912 274.811, 345.595 273.116, 345 274.500 C 344.494 275.677, 344.176 265.800, 344.227 250.500 C 344.275 236.200, 344.623 226.750, 345 229.500 C 345.641 234.176, 345.690 234.014, 345.743 227 C 345.782 221.899, 345.545 220.300, 345 222 C 344.275 224.262, 344.199 224.167, 344.199 221 C 344.199 219.075, 344.594 216.375, 345.075 215 C 345.877 212.711, 345.926 212.773, 345.652 215.726 C 345.426 218.171, 345.649 218.707, 346.574 217.939 C 347.845 216.883, 347.403 213.367, 345.879 212.425 C 345.396 212.127, 345 211.207, 345 210.382 C 345 209.503, 345.478 209.177, 346.155 209.595 C 346.906 210.060, 347.036 209.867, 346.526 209.043 C 346.070 208.305, 346.319 207.412, 347.122 206.904 C 348.204 206.218, 348.218 206.027, 347.191 206.015 C 346.471 206.007, 346.160 205.550, 346.500 205 C 346.840 204.450, 346.737 204, 346.272 204 C 345.806 204, 345.357 203.090, 345.273 201.978 C 345.190 200.866, 345.504 200.194, 345.973 200.483 C 347.133 201.200, 346.667 198.523, 345.340 196.851 C 343.783 194.889, 343.013 189.895, 344.394 190.722 C 345.003 191.086, 344.915 190.662, 344.199 189.779 C 342.293 187.426, 341.631 182.921, 343.284 183.556 C 344.195 183.905, 344.627 183.054, 344.692 180.780 C 344.848 175.342, 344.972 174.638, 345.653 175.320 C 346.013 175.679, 347.363 174.542, 348.653 172.792 C 349.944 171.043, 351 170.149, 351 170.806 C 351 171.463, 351.459 172, 352.020 172 C 352.580 172, 352.824 170.812, 352.560 169.361 C 352.140 167.042, 353.981 162.598, 355.090 163.256 C 355.315 163.390, 355.391 163.316, 355.259 163.092 C 355.126 162.868, 355.527 162.070, 356.150 161.319 C 357.058 160.225, 356.908 160.087, 355.391 160.625 C 353.697 161.225, 353.721 161.079, 355.626 159.224 C 357.116 157.773, 357.600 156.360, 357.245 154.503 C 356.881 152.598, 357.127 151.932, 358.119 152.136 C 358.879 152.292, 360.567 151.830, 361.871 151.110 C 363.282 150.330, 363.966 150.245, 363.562 150.900 C 362.966 151.864, 364.872 152.494, 367.250 152.118 C 367.663 152.053, 368 152.498, 368 153.107 C 368 153.716, 368.642 153.968, 369.427 153.666 C 370.212 153.365, 371.401 153.778, 372.069 154.584 C 372.738 155.389, 373.499 155.834, 373.762 155.572 C 374.024 155.310, 374.913 155.770, 375.738 156.595 C 376.563 157.420, 377.492 157.841, 377.802 157.531 C 378.707 156.626, 377.115 155.582, 366 149.789 C 360.225 146.780, 351.225 142.911, 346 141.193 C 328.648 135.486, 323.409 134.731, 299 134.423 C 286.625 134.267, 275.600 134.347, 274.500 134.601 M 345.252 261.500 C 345.263 263.700, 345.468 264.482, 345.707 263.238 C 345.946 261.994, 345.937 260.194, 345.687 259.238 C 345.437 258.282, 345.241 259.300, 345.252 261.500 M 347.252 261.500 C 347.263 263.700, 347.468 264.482, 347.707 263.238 C 347.946 261.994, 347.937 260.194, 347.687 259.238 C 347.437 258.282, 347.241 259.300, 347.252 261.500 M 344.310 282.500 C 344.315 285.800, 344.502 287.029, 344.725 285.232 C 344.947 283.435, 344.943 280.735, 344.715 279.232 C 344.486 277.729, 344.304 279.200, 344.310 282.500" stroke="none" fill="#38c5fb" fill-rule="evenodd"/></svg>