<svg width="26" height="29" viewBox="0 0 26 29" fill="none" xmlns="http://www.w3.org/2000/svg">
<path d="M7.31929 3.67179L12.7759 6.9463V0.398438L9.45845 2.3891L7.31929 3.67179Z" fill="url(#paint0_linear_46_932)"/>
<path d="M18.2325 3.67179L12.7759 6.9463V0.398438L16.0933 2.3891L18.2325 3.67179Z" fill="url(#paint1_linear_46_932)"/>
<path fill-rule="evenodd" clip-rule="evenodd" d="M19.7696 4.59206C19.6649 4.52921 19.534 4.52921 19.4293 4.59206L13.8027 7.96799C13.5151 8.14058 13.6374 8.58237 13.9729 8.58237H25.2261C25.5615 8.58237 25.6839 8.14058 25.3962 7.96799L19.7696 4.59206ZM6.12907 4.59229C6.02433 4.52945 5.89347 4.52945 5.78873 4.59229L0.162133 7.96823C-0.125522 8.14082 -0.00315694 8.5826 0.332303 8.5826H11.5855C11.921 8.5826 12.0433 8.14082 11.7557 7.96823L6.12907 4.59229Z" fill="url(#paint2_linear_46_932)"/>
<path d="M25.2265 9.26465H0.330755C0.148084 9.26465 0 9.41273 0 9.5954V10.983C0 11.1656 0.148084 11.3137 0.330755 11.3137H25.2265C25.4092 11.3137 25.5573 11.1656 25.5573 10.983V9.5954C25.5573 9.41273 25.4092 9.26465 25.2265 9.26465Z" fill="url(#paint3_linear_46_932)"/>
<path fill-rule="evenodd" clip-rule="evenodd" d="M18.2074 12.6676C18.2074 12.2967 18.508 11.9961 18.8789 11.9961H23.0197C23.3906 11.9961 23.6913 12.2967 23.6913 12.6676V25.1123C23.6913 25.3461 23.5696 25.5631 23.3702 25.6851L19.2293 28.2182C18.7819 28.4919 18.2074 28.1699 18.2074 27.6454V12.6676ZM1.86621 12.6679C1.86621 12.297 2.16686 11.9964 2.53772 11.9964H6.67857C7.04944 11.9964 7.35008 12.297 7.35008 12.6679V25.1926C7.35008 25.4264 7.22845 25.6434 7.02899 25.7654L2.88814 28.2985C2.44069 28.5722 1.86621 28.2502 1.86621 27.7257V12.6679ZM10.5114 11.9961C10.1406 11.9961 9.83993 12.2967 9.83993 12.6676V22.7164C9.83993 22.9528 9.96415 23.1717 10.167 23.2929L14.3079 25.7668C14.7555 26.0343 15.3238 25.7118 15.3238 25.1904V12.6676C15.3238 12.2967 15.0232 11.9961 14.6523 11.9961H10.5114Z" fill="url(#paint4_linear_46_932)"/>
<defs>
<linearGradient id="paint0_linear_46_932" x1="6.53583" y1="-0.0976129" x2="14.2295" y2="0.99526" gradientUnits="userSpaceOnUse">
<stop stop-color="#0047FF"/>
<stop offset="1" stop-color="#00BCD4"/>
</linearGradient>
<linearGradient id="paint1_linear_46_932" x1="19.0159" y1="-0.0976129" x2="11.3222" y2="0.99526" gradientUnits="userSpaceOnUse">
<stop stop-color="#0047FF"/>
<stop offset="1" stop-color="#00BCD4"/>
</linearGradient>
<linearGradient id="paint2_linear_46_932" x1="29.2271" y1="4.23905" x2="12.2402" y2="22.5669" gradientUnits="userSpaceOnUse">
<stop stop-color="#0047FF"/>
<stop offset="1" stop-color="#00BCD4"/>
</linearGradient>
<linearGradient id="paint3_linear_46_932" x1="29.2268" y1="9.10942" x2="22.567" y2="23.2685" gradientUnits="userSpaceOnUse">
<stop stop-color="#0047FF"/>
<stop offset="1" stop-color="#00BCD4"/>
</linearGradient>
<linearGradient id="paint4_linear_46_932" x1="26.8249" y1="10.7535" x2="-3.03302" y2="17.5257" gradientUnits="userSpaceOnUse">
<stop stop-color="#0047FF"/>
<stop offset="1" stop-color="#00BCD4"/>
</linearGradient>
</defs>
</svg>
